<?xml version="1.0" standalone="no"?>
<!DOCTYPE svg PUBLIC "-//W3C//DTD SVG 20010904//EN"
 "http://www.w3.org/TR/2001/REC-SVG-20010904/DTD/svg10.dtd">
<svg version="1.0" xmlns="http://www.w3.org/2000/svg"
 width="375.000000pt" height="666.000000pt" viewBox="0 0 375.000000 666.000000"
 preserveAspectRatio="xMidYMid meet">

<g transform="translate(0.000000,666.000000) scale(0.100000,-0.100000)"
fill="#000000" stroke="none">
<path d="M1823 6082 c-13 -2 -23 -8 -23 -13 0 -5 -19 -8 -42 -7 -36 3 -43 0
-42 -14 1 -10 -4 -18 -12 -18 -8 0 -14 5 -14 10 0 6 -9 10 -20 10 -22 0 -27
-16 -7 -23 23 -9 -26 -38 -56 -32 -17 3 -26 1 -22 -5 3 -6 18 -10 33 -11 l27
0 -24 -10 c-17 -7 -28 -6 -40 4 -18 16 -61 29 -61 18 0 -4 -27 -13 -60 -20
-59 -13 -64 -18 -61 -53 2 -12 -5 -18 -18 -18 -11 0 -23 -5 -26 -11 -4 -6 -13
-8 -21 -5 -38 15 -60 -25 -24 -44 47 -25 9 -56 -55 -44 -36 6 -51 -10 -20 -22
28 -11 15 -29 -38 -52 -108 -46 -171 -135 -240 -332 -37 -108 -40 -125 -47
-273 -4 -87 -5 -192 -2 -233 4 -70 3 -75 -14 -72 -23 4 -22 -22 3 -122 9 -36
17 -103 18 -150 1 -76 12 -158 47 -345 11 -59 34 -156 64 -265 9 -30 20 -102
25 -160 13 -157 27 -269 38 -324 6 -26 8 -52 5 -57 -9 -15 24 -104 87 -235 52
-108 65 -127 121 -175 124 -107 160 -127 275 -154 86 -20 106 -19 161 9 26 13
59 26 73 29 29 7 103 76 159 147 30 39 100 147 100 155 0 8 80 139 80 132 0
-20 -138 -271 -159 -287 -3 -3 -22 -26 -41 -51 -40 -54 -75 -79 -183 -132 -65
-32 -85 -37 -117 -32 -23 4 -41 2 -45 -4 -3 -6 -14 -11 -23 -11 -15 1 -14 2 2
12 18 10 14 13 -30 24 -63 17 -64 17 -58 0 3 -8 13 -12 23 -9 9 2 23 -3 31
-12 11 -13 10 -15 -6 -8 -17 6 -18 5 -4 -12 14 -17 13 -18 -20 -13 -74 12
-224 127 -277 214 -11 18 -12 18 -12 1 -1 -28 105 -134 184 -185 39 -25 71
-49 73 -53 2 -4 11 -5 22 -2 15 4 18 1 13 -15 -2 -11 0 -23 6 -26 6 -4 9 -1 5
7 -3 8 0 18 7 23 8 4 10 3 5 -4 -5 -8 0 -12 13 -12 12 0 21 -4 21 -10 0 -5 7
-10 15 -10 18 0 20 -20 3 -21 -7 0 0 -6 17 -14 27 -12 66 -5 85 15 11 11 70
50 76 50 3 0 24 16 47 35 22 19 46 35 53 35 13 0 24 22 24 47 0 9 20 39 43 67
47 55 157 221 157 236 0 6 4 10 9 10 5 0 12 8 15 18 9 29 45 62 60 56 8 -3 16
3 19 15 3 12 0 21 -6 21 -6 0 -4 6 5 13 24 18 33 57 14 57 -9 0 -16 5 -16 11
0 6 9 8 20 4 11 -4 20 -2 20 4 0 6 -4 11 -10 11 -5 0 -10 4 -10 10 0 5 6 7 13
4 8 -3 13 4 14 16 1 11 -2 18 -7 15 -5 -3 -12 0 -15 6 -4 6 2 13 14 16 28 7
27 23 -1 23 -23 1 -23 1 2 15 19 11 21 14 8 15 -22 0 -24 20 -2 20 8 0 12 5 9
10 -4 6 -10 8 -15 5 -14 -8 -21 26 -27 125 -5 92 -5 97 21 127 14 17 26 35 26
41 0 5 18 47 39 93 22 46 54 136 71 199 18 63 41 140 51 170 11 31 24 95 29
144 5 49 23 136 41 194 35 116 33 154 -9 160 -12 2 -22 6 -22 8 0 13 41 240
45 253 3 7 5 66 6 131 0 105 -3 131 -36 251 -21 74 -43 157 -49 184 -28 114
-66 193 -113 235 -25 22 -54 40 -64 40 -12 0 -19 7 -19 20 0 12 -10 24 -22 30
-13 5 -19 9 -14 9 5 1 -1 12 -14 26 -15 16 -30 23 -41 20 -10 -3 -20 -1 -24 5
-3 5 -1 10 5 10 6 0 8 5 5 11 -4 6 -13 8 -20 5 -7 -2 -21 4 -30 14 -10 11 -38
22 -64 26 -25 3 -56 15 -68 26 -21 19 -43 18 -43 -3 0 -6 5 -7 11 -3 7 4 10 1
7 -7 -7 -20 -38 -24 -38 -5 0 9 -4 16 -10 16 -5 0 -10 -7 -10 -15 0 -8 -5 -15
-10 -15 -7 0 -7 6 0 19 12 23 4 29 -27 23z m-263 -127 c0 -13 -4 -14 -20 -5
-11 6 -20 13 -20 15 0 3 9 5 20 5 11 0 20 -7 20 -15z m265 -15 c3 -5 -1 -10
-9 -10 -9 0 -16 5 -16 10 0 6 4 10 9 10 6 0 13 -4 16 -10z m175 0 c0 -5 -10
-10 -22 -9 -22 0 -22 1 -3 9 11 5 21 9 23 9 1 1 2 -3 2 -9z m-560 -10 c0 -5
-4 -10 -10 -10 -5 0 -10 5 -10 10 0 6 5 10 10 10 6 0 10 -4 10 -10z m50 0 c0
-5 -4 -10 -10 -10 -5 0 -10 5 -10 10 0 6 5 10 10 10 6 0 10 -4 10 -10z m37
-16 c-3 -3 -12 -4 -19 -1 -8 3 -5 6 6 6 11 1 17 -2 13 -5z m13 -44 c13 -8 13
-10 -2 -10 -9 0 -20 5 -23 10 -8 13 5 13 25 0z m-230 -400 c0 -11 -7 -23 -15
-26 -22 -9 -19 -35 3 -28 17 6 3 -8 -60 -59 -16 -12 -28 -25 -28 -29 0 -11 42
-14 73 -6 18 4 37 2 50 -5 12 -7 23 -13 25 -13 2 -1 -8 -13 -22 -27 -14 -14
-27 -22 -30 -19 -3 3 -6 1 -6 -5 0 -5 18 -15 41 -22 23 -7 48 -15 58 -19 13
-5 13 -3 -3 13 -10 10 -27 19 -39 20 -11 1 -23 7 -25 14 -2 6 0 10 5 9 12 -4
63 32 63 44 0 6 -6 8 -13 5 -18 -7 -44 9 -33 20 5 4 11 2 13 -5 4 -10 9 -9 24
4 10 9 17 20 14 23 -2 4 4 7 13 8 9 0 56 4 105 8 63 6 87 5 87 -4 0 -6 -10
-11 -22 -11 -12 0 -18 -3 -15 -7 4 -3 21 -6 39 -5 23 1 28 -2 18 -8 -8 -6 -23
-10 -32 -10 -9 0 -23 -6 -31 -14 -7 -8 -34 -19 -58 -24 -38 -9 -27 -10 86 -13
72 -1 140 -2 153 -1 16 0 22 -5 22 -19 0 -14 -7 -19 -25 -19 -15 0 -24 -5 -23
-12 2 -7 -6 -12 -16 -11 -11 1 -25 -4 -30 -12 -11 -13 -40 -21 -106 -30 -43
-6 -180 14 -180 26 0 16 -27 10 -82 -18 -53 -26 -80 -51 -72 -65 4 -6 -67 -58
-80 -58 -2 0 -18 -13 -36 -30 -18 -16 -38 -30 -45 -30 -19 0 -12 70 9 82 9 5
16 16 16 24 0 8 11 25 25 38 18 17 22 25 13 34 -7 7 -8 12 -4 12 5 0 3 7 -4
15 -17 20 -48 19 -46 -1 2 -34 -22 -24 -28 11 -5 22 -13 35 -23 35 -13 0 -15
12 -11 73 2 59 8 79 28 104 26 33 72 44 86 22 5 -8 9 -8 14 1 5 8 32 13 69 14
38 1 62 6 66 14 7 19 25 14 25 -8z m137 -26 c19 -19 16 -26 -9 -18 -13 4 -28
7 -34 7 -6 0 -16 8 -23 18 -10 17 -8 18 22 12 17 -4 38 -12 44 -19z m391 -194
c-3 -35 10 -54 27 -40 8 6 24 10 37 8 22 -4 22 -5 -5 -16 -39 -17 -101 -16
-94 1 3 9 -5 12 -32 10 l-36 -2 28 12 c21 8 27 17 24 33 -3 18 1 21 25 20 25
-1 29 -5 26 -26z m75 7 c4 -10 -4 -14 -24 -14 -44 0 -36 17 12 26 4 0 9 -5 12
-12z m-863 -196 c0 -11 -4 -23 -10 -26 -5 -3 -10 -11 -10 -16 0 -6 4 -7 10 -4
6 3 7 -1 4 -9 -4 -11 0 -16 11 -16 11 0 15 -6 11 -17 -3 -10 -10 -38 -16 -61
-8 -31 -15 -42 -26 -38 -8 3 -14 0 -14 -8 0 -7 -7 -19 -15 -26 -13 -11 -15 -7
-14 26 0 40 17 95 18 62 1 -12 7 -15 24 -10 18 5 19 7 4 10 -9 2 -14 8 -11 14
4 6 0 14 -7 19 -10 6 -11 9 -1 9 7 0 12 13 12 33 0 41 10 77 21 77 5 0 9 -9 9
-19z m-10 -230 c0 -19 -39 -115 -40 -97 0 5 -3 7 -6 3 -9 -8 27 -43 53 -51 13
-4 42 -26 67 -49 74 -72 110 -96 146 -103 55 -9 60 -12 60 -34 0 -13 -7 -20
-19 -20 -11 0 -23 -4 -26 -10 -3 -5 -17 -10 -31 -10 -13 0 -24 -3 -24 -8 0
-19 -62 -43 -113 -43 -9 0 -15 -4 -12 -9 3 -5 -5 -12 -17 -16 -33 -10 -39 -26
-20 -48 16 -18 16 -19 0 -13 -10 3 -20 2 -23 -3 -4 -6 -12 -10 -20 -10 -11 0
-11 6 3 32 9 18 21 36 25 39 4 3 7 10 6 15 -4 21 2 44 15 56 8 8 15 23 17 33
2 10 13 19 24 21 30 4 65 26 65 41 0 10 -8 11 -27 7 -16 -4 -29 -11 -31 -16
-5 -12 -46 -10 -59 3 -13 13 -62 -29 -60 -51 1 -8 -2 -15 -8 -15 -5 0 -10 8
-10 18 -1 11 -8 23 -15 27 -9 5 -15 32 -17 69 -2 47 2 71 18 103 14 28 18 43
10 46 -6 2 -11 21 -11 42 0 30 4 39 22 43 13 4 26 1 30 -6 5 -8 8 -4 8 11 0
12 5 22 10 22 6 0 10 -9 10 -19z m675 -37 c13 -14 15 -28 8 -88 -11 -107 -8
-155 13 -170 16 -12 12 -15 -32 -29 -27 -9 -69 -19 -94 -23 -25 -3 -50 -13
-56 -20 -6 -8 -28 -25 -48 -39 -32 -22 -36 -22 -36 -7 0 10 14 39 30 65 17 26
30 50 30 53 0 3 11 17 25 31 16 18 23 34 19 48 -7 28 25 121 56 163 26 35 59
42 85 16z m-495 -18 c0 -3 -4 -8 -10 -11 -5 -3 -10 -1 -10 4 0 6 5 11 10 11 6
0 10 -2 10 -4z m-223 -432 c-2 -104 -11 -97 -21 17 -5 63 -4 76 8 76 13 0 15
-17 13 -93z m26 46 c-3 -11 -7 -20 -9 -20 -2 0 -4 9 -4 20 0 11 4 20 9 20 5 0
7 -9 4 -20z m7 -94 c0 -3 -4 -8 -10 -11 -5 -3 -10 -1 -10 4 0 6 5 11 10 11 6
0 10 -2 10 -4z m1177 -753 c-3 -10 -5 -4 -5 12 0 17 2 24 5 18 2 -7 2 -21 0
-30z"/>
<path d="M1540 5360 c-9 -6 -10 -10 -3 -10 6 0 15 5 18 10 8 12 4 12 -15 0z"/>
<path d="M1170 5280 c0 -5 5 -10 11 -10 5 0 7 5 4 10 -3 6 -8 10 -11 10 -2 0
-4 -4 -4 -10z"/>
<path d="M1254 5255 c-19 -14 -18 -14 4 -15 13 0 22 6 22 15 0 19 -1 19 -26 0z"/>
<path d="M1165 5200 c-3 -5 -1 -10 4 -10 6 0 11 5 11 10 0 6 -2 10 -4 10 -3 0
-8 -4 -11 -10z"/>
<path d="M1060 4415 c0 -8 5 -15 10 -15 6 0 10 7 10 15 0 8 -4 15 -10 15 -5 0
-10 -7 -10 -15z"/>
<path d="M1608 6023 c6 -2 18 -2 25 0 6 3 1 5 -13 5 -14 0 -19 -2 -12 -5z"/>
<path d="M1253 5826 c2 -6 16 -12 30 -14 19 -2 25 1 22 10 -6 16 -58 21 -52 4z"/>
<path d="M1180 5759 c0 -5 5 -7 10 -4 6 3 10 8 10 11 0 2 -4 4 -10 4 -5 0 -10
-5 -10 -11z"/>
<path d="M2275 3760 c-13 -6 -15 -9 -5 -9 8 0 22 4 30 9 18 12 2 12 -25 0z"/>
<path d="M2318 3713 c6 -2 18 -2 25 0 6 3 1 5 -13 5 -14 0 -19 -2 -12 -5z"/>
<path d="M2267 3676 c-4 -9 -13 -16 -22 -16 -8 0 -15 -7 -15 -16 0 -11 6 -14
20 -9 13 4 22 1 26 -9 11 -30 27 -17 20 16 -8 39 -21 55 -29 34z"/>
<path d="M2286 3571 c8 -39 22 -48 33 -20 9 25 1 41 -23 45 -10 1 -13 -5 -10
-25z"/>
<path d="M2235 3560 c-3 -6 1 -7 9 -4 18 7 21 14 7 14 -6 0 -13 -4 -16 -10z"/>
<path d="M2238 3533 c7 -3 16 -2 19 1 4 3 -2 6 -13 5 -11 0 -14 -3 -6 -6z"/>
<path d="M2586 3461 c-3 -5 1 -11 9 -15 9 -3 15 0 15 9 0 16 -16 20 -24 6z"/>
<path d="M2616 3385 c4 -27 8 -81 10 -119 1 -37 6 -71 10 -75 10 -9 -4 178
-16 214 -8 25 -9 22 -4 -20z"/>
<path d="M3059 3380 l-24 -21 33 16 c31 15 41 25 23 25 -5 0 -19 -9 -32 -20z"/>
<path d="M2944 3376 c-10 -8 -15 -18 -11 -22 4 -4 17 2 30 14 24 25 12 30 -19
8z"/>
<path d="M2963 3332 c-49 -21 -65 -34 -77 -62 -12 -24 -12 -30 -3 -17 8 9 17
17 21 17 9 0 126 79 126 85 0 6 7 8 -67 -23z"/>
<path d="M2169 3167 c-9 -23 -22 -71 -29 -107 -6 -36 -16 -70 -22 -77 -5 -7
-7 -17 -3 -22 3 -6 -4 -32 -16 -58 -37 -80 -45 -147 -12 -95 14 24 108 391
101 397 -2 2 -11 -15 -19 -38z"/>
<path d="M1150 3155 c0 -5 5 -17 10 -25 5 -8 10 -10 10 -5 0 6 -5 17 -10 25
-5 8 -10 11 -10 5z"/>
<path d="M0 3089 c0 -3 13 -23 30 -44 17 -21 30 -34 30 -29 -1 10 -59 82 -60
73z"/>
<path d="M1181 3085 c1 -19 18 -51 18 -35 0 8 -4 22 -9 30 -5 8 -9 11 -9 5z"/>
<path d="M607 3043 c-11 -19 -47 -147 -46 -167 1 -27 4 -19 33 87 22 79 25
100 13 80z"/>
<path d="M2802 3020 c0 -14 2 -19 5 -12 2 6 2 18 0 25 -3 6 -5 1 -5 -13z"/>
<path d="M0 3020 c0 -5 14 -32 31 -60 56 -91 110 -257 88 -271 -8 -5 -7 -13 6
-30 l17 -24 -6 28 c-4 16 -2 27 4 27 18 0 12 155 -9 208 -10 26 -21 59 -24 72
-4 24 -4 24 -6 -3 0 -15 6 -44 14 -64 8 -19 15 -47 15 -62 -1 -21 -6 -15 -29
31 -29 59 -90 158 -97 158 -2 0 -4 -4 -4 -10z"/>
<path d="M2791 2934 c0 -11 3 -14 6 -6 3 7 2 16 -1 19 -3 4 -6 -2 -5 -13z"/>
<path d="M0 2906 c0 -2 8 -10 18 -17 15 -13 16 -12 3 4 -13 16 -21 21 -21 13z"/>
<path d="M406 2884 c-3 -8 -10 -13 -15 -10 -17 11 -70 -68 -107 -158 -20 -50
-37 -98 -38 -106 -1 -8 -8 -28 -14 -43 -7 -16 -12 -35 -12 -43 0 -8 -4 -14 -9
-14 -5 0 -18 -26 -27 -57 l-18 -58 -8 100 c-5 65 -13 105 -23 114 -23 23 -25
10 -10 -49 21 -77 19 -80 -16 -26 -16 27 -33 46 -36 43 -3 -3 4 -19 16 -35 31
-44 26 -43 -25 5 -26 24 -51 43 -55 43 -16 0 -9 -60 11 -100 15 -30 18 -45 10
-60 -5 -11 -14 -29 -20 -40 -16 -31 -12 -91 7 -112 16 -18 16 -18 0 -12 -17 6
-18 -29 -16 -615 1 -592 2 -621 19 -621 16 0 17 -4 9 -32 -5 -18 -9 -47 -9
-65 0 -17 -5 -35 -10 -38 -6 -4 -10 -165 -10 -451 l0 -444 1431 0 1430 0 -20
28 c-11 16 -27 34 -35 41 -11 9 -15 31 -14 79 1 56 -5 81 -37 157 l-39 90 -2
175 c-3 340 19 659 52 739 8 18 14 61 14 95 0 68 15 102 91 200 69 90 99 138
99 158 0 28 19 21 26 -9 14 -60 69 -233 101 -318 19 -49 120 -261 223 -470
104 -209 194 -400 200 -423 13 -52 31 -92 40 -92 8 0 30 84 30 116 0 21 -4 25
-20 21 -11 -3 -18 -1 -14 4 9 15 33 10 43 -10 8 -13 6 -34 -5 -72 -25 -83 -25
-86 6 -154 40 -89 46 -146 25 -242 -9 -43 -19 -86 -21 -95 -5 -16 3 -18 71
-18 l75 0 0 650 -1 650 -24 0 c-34 0 -55 -10 -55 -27 0 -8 -6 -13 -12 -10 -7
2 -12 11 -10 21 2 11 -4 16 -19 16 -16 0 -20 -4 -15 -17 5 -14 2 -13 -11 3
-10 12 -26 24 -36 27 -10 4 -15 11 -12 17 12 19 -26 23 -45 5 -19 -17 -20 -17
-20 3 0 11 -5 33 -10 47 -8 22 -13 25 -24 16 -12 -10 -15 -8 -18 11 -2 15 -9
23 -20 22 -10 -1 -15 2 -12 7 3 5 -5 22 -17 39 -17 22 -28 29 -43 24 -14 -3
-17 -2 -8 4 17 12 4 75 -14 68 -7 -3 -16 4 -19 14 -3 11 -11 19 -17 17 -6 -1
-12 13 -12 33 -1 28 -7 37 -30 48 -19 10 -25 17 -16 22 8 5 6 9 -8 12 -18 5
-33 56 -33 111 0 9 -6 17 -12 17 -7 0 -24 11 -40 24 -20 17 -28 34 -29 59 -1
20 -5 34 -9 31 -4 -2 -6 7 -5 20 5 48 149 144 294 196 34 13 61 24 59 26 -6 7
-108 -31 -187 -69 -109 -53 -191 -109 -253 -176 l-54 -59 -6 66 c-3 39 -1 75
6 87 9 18 9 19 -6 6 -24 -19 -21 -3 8 48 14 24 24 46 21 48 -2 2 -17 -8 -34
-22 -24 -20 -32 -22 -41 -11 -8 10 -6 19 9 36 22 25 18 36 -15 42 -19 3 -18 5
7 31 38 38 48 60 37 78 -5 7 -9 10 -9 4 0 -12 -60 -48 -60 -36 0 4 4 21 9 37
5 16 12 65 15 109 l5 80 -20 -55 -19 -55 5 59 c3 49 2 55 -9 40 -12 -16 -14
-14 -20 18 -8 41 -36 49 -36 9 0 -14 -5 -100 -10 -191 -17 -280 -21 -300 -77
-392 -13 -21 -23 -46 -24 -55 -1 -10 -5 2 -11 27 -14 70 -21 79 -27 40 -5 -26
-14 16 -39 165 -18 110 -35 234 -39 275 -7 90 -20 131 -33 110 -13 -21 -179
-34 -372 -31 -162 3 -197 -4 -199 -37 0 -14 -2 -13 -8 3 -6 15 -3 22 10 27 23
9 25 38 3 38 -10 0 -14 -5 -10 -15 5 -13 2 -14 -15 -5 -15 8 -19 19 -17 42 2
18 -2 33 -9 35 -7 3 -13 -2 -13 -10 0 -8 -12 -31 -27 -50 -38 -50 -73 -106
-73 -118 0 -8 -69 -13 -165 -13 -54 0 -280 36 -293 47 -13 10 -44 73 -46 92
-1 5 -9 11 -19 13 -17 3 -17 1 -3 -32 14 -34 14 -36 -3 -36 -27 0 -102 28
-122 45 -9 9 -49 22 -90 30 -87 16 -119 27 -157 54 -29 21 -179 79 -277 107
-33 9 -71 24 -85 34 -14 9 -51 30 -83 46 -63 31 -61 26 -41 107 7 29 -9 39
-20 11z m415 -325 c19 -7 39 -16 44 -22 7 -7 4 -8 -8 -4 -15 6 -17 3 -12 -13
5 -17 3 -18 -25 -10 -43 12 -58 4 -72 -41 -6 -22 -13 -37 -15 -35 -3 2 3 28
11 57 19 64 19 60 1 53 -8 -4 -15 -1 -15 4 0 10 18 18 46 21 6 0 26 -4 45 -10z
m311 -113 c14 -20 8 -36 -12 -36 -11 0 -20 6 -20 13 0 8 -7 14 -15 14 -8 0
-15 -4 -15 -9 0 -4 5 -8 11 -8 8 0 8 -4 1 -12 -14 -18 -62 -236 -55 -253 3
-10 -1 -15 -13 -15 -16 0 -16 -2 -4 -10 9 -6 17 -5 21 2 4 5 15 7 26 4 10 -3
28 1 39 9 29 22 41 18 16 -5 -12 -12 -22 -25 -22 -30 0 -6 -5 -10 -11 -10 -5
0 -8 4 -5 9 3 4 -5 6 -18 4 -12 -3 -39 2 -59 11 -31 12 -37 20 -37 44 0 35 35
179 57 234 23 57 89 82 115 44z m1411 -64 c3 -27 2 -66 -3 -88 -5 -21 -10 -63
-10 -91 0 -41 -4 -53 -15 -53 -9 0 -19 -10 -24 -22 -7 -20 -5 -24 18 -29 l26
-7 -25 -1 c-47 -2 -53 10 -48 93 3 42 1 76 -4 76 -4 0 -8 -7 -8 -16 0 -9 -5
-12 -12 -8 -7 5 -8 3 -3 -5 4 -7 1 -33 -6 -58 -12 -43 -13 -44 -22 -22 -20 54
-19 59 19 102 6 7 9 18 6 25 -2 6 2 13 10 13 49 4 75 18 82 42 9 34 7 67 -4
67 -5 0 -10 -4 -10 -10 0 -5 -13 -2 -29 8 -37 21 -31 32 18 32 38 0 38 0 44
-48z m-1803 26 c0 -19 -18 -44 -25 -36 -4 3 0 15 7 27 15 24 18 26 18 9z m41
-29 c19 -10 18 -29 -2 -29 -6 0 -7 5 -3 11 4 7 1 10 -7 7 -8 -3 -13 -10 -12
-16 3 -15 -45 -21 -51 -7 -3 8 2 11 13 8 12 -3 20 2 24 16 6 24 11 25 38 10z
m413 -49 c-5 -5 -9 4 -10 23 -1 30 -1 30 9 9 6 -14 7 -26 1 -32z m-515 -58
c-8 -29 -16 -39 -26 -35 -12 5 -12 7 -1 14 7 5 14 12 14 16 1 4 5 18 9 31 13
40 17 16 4 -26z m110 9 c-6 -18 -14 -30 -17 -27 -2 3 1 19 8 36 16 40 23 33 9
-9z m1 -81 c18 -12 2 -12 -25 0 -13 6 -15 9 -5 9 8 0 22 -4 30 -9z m1726 -87
c-10 -10 -19 5 -10 18 6 11 8 11 12 0 2 -7 1 -15 -2 -18z m-1576 -23 c0 -5 -5
-10 -11 -10 -5 0 -7 5 -4 10 3 6 8 10 11 10 2 0 4 -4 4 -10z m1470 -5 c0 -8
-7 -15 -15 -15 -13 0 -14 3 -3 15 16 18 18 18 18 0z m-1409 -5 c5 0 9 -4 9
-10 0 -15 -20 -12 -38 7 -16 16 -16 16 1 10 10 -4 23 -7 28 -7z m876 -77 c-9
-2 -15 -9 -12 -14 4 -5 0 -9 -7 -9 -7 0 -5 -5 6 -11 10 -6 14 -14 9 -18 -17
-12 -44 -62 -38 -71 3 -5 1 -11 -5 -15 -5 -3 -10 -17 -10 -31 0 -13 -4 -24
-10 -24 -5 0 -10 -11 -10 -25 0 -14 -4 -25 -10 -25 -5 0 -10 -8 -10 -19 0 -10
-9 -30 -20 -44 -11 -14 -23 -39 -26 -56 -4 -16 -12 -32 -20 -35 -8 -3 -14 -12
-14 -21 0 -8 -3 -15 -6 -15 -10 0 -34 28 -34 39 0 6 -4 11 -10 11 -5 0 -10 6
-10 13 0 6 -9 23 -20 37 -24 30 -25 40 -4 40 8 0 12 5 9 11 -7 10 34 79 47 79
3 0 4 -10 1 -22 -4 -22 -4 -22 8 -3 7 11 19 25 26 30 8 6 15 18 17 27 1 9 15
29 30 43 16 15 25 32 22 40 -4 10 1 15 14 15 14 0 25 12 36 40 13 33 21 40 43
39 17 -1 20 -3 8 -6z m-982 -33 c3 -5 2 -10 -4 -10 -5 0 -13 5 -16 10 -3 6 -2
10 4 10 5 0 13 -4 16 -10z m115 5 c0 -2 -14 -12 -31 -21 -17 -8 -28 -11 -24
-4 4 6 17 15 29 20 27 11 26 11 26 5z m-81 -48 c-2 -1 -13 -9 -24 -17 -19 -14
-19 -14 -6 3 7 9 18 17 24 17 6 0 8 -1 6 -3z m1734 -87 c3 -11 1 -23 -4 -26
-5 -3 -9 6 -9 20 0 31 6 34 13 6z m-1140 -312 c14 -24 28 -63 31 -88 4 -25 14
-55 22 -67 8 -13 12 -24 9 -24 -3 -1 -11 -2 -17 -3 -7 0 -14 -10 -16 -21 -2
-11 -15 -31 -30 -44 -15 -13 -21 -20 -14 -17 20 12 14 2 -30 -44 -23 -25 -38
-39 -33 -31 6 10 4 12 -4 6 -7 -4 -11 -16 -8 -26 6 -24 -9 -25 -31 -2 -16 15
-17 15 -20 0 -2 -9 2 -24 8 -34 10 -16 11 -16 6 -1 -3 12 -1 15 10 11 19 -7
18 -19 -3 -27 -27 -11 -35 8 -37 91 -1 65 3 86 23 126 14 26 28 47 32 47 5 0
11 17 15 37 4 21 20 59 36 86 15 27 24 46 18 42 -6 -3 -7 0 -4 9 9 22 10 21
37 -26z m-116 -100 c-3 -7 -5 -2 -5 12 0 14 2 19 5 13 2 -7 2 -19 0 -25z m-53
-287 c-4 -17 -9 -30 -11 -27 -3 2 -2 19 2 36 9 41 17 33 9 -9z m-1254 5 c0 -8
-4 -18 -10 -21 -5 -3 -10 3 -10 14 0 12 5 21 10 21 6 0 10 -6 10 -14z"/>
<path d="M1398 1308 c-14 -11 -23 -43 -19 -72 2 -15 41 26 41 44 0 9 5 21 12
28 17 17 -13 16 -34 0z"/>
<path d="M30 2859 c0 -9 10 -24 21 -35 22 -19 22 -19 11 1 -6 11 -16 27 -22
35 -8 13 -10 13 -10 -1z"/>
<path d="M2781 2824 c0 -11 3 -14 6 -6 3 7 2 16 -1 19 -3 4 -6 -2 -5 -13z"/>
<path d="M2057 2761 c-4 -17 -3 -21 5 -13 5 5 8 16 6 23 -3 8 -7 3 -11 -10z"/>
<path d="M2041 2703 c-1 -6 -4 -20 -7 -30 -5 -17 -5 -17 6 0 6 10 9 23 6 30
-3 9 -5 9 -5 0z"/>
<path d="M2907 2687 c-9 -24 -20 -112 -13 -106 7 7 26 112 21 117 -1 2 -5 -4
-8 -11z"/>
<path d="M2970 2660 c-6 -11 -8 -20 -6 -20 3 0 10 9 16 20 6 11 8 20 6 20 -3
0 -10 -9 -16 -20z"/>
<path d="M1960 2580 c0 -5 5 -10 10 -10 6 0 10 5 10 10 0 6 -4 10 -10 10 -5 0
-10 -4 -10 -10z"/>
<path d="M1990 2539 c0 -5 5 -7 10 -4 6 3 10 8 10 11 0 2 -4 4 -10 4 -5 0 -10
-5 -10 -11z"/>
<path d="M1584 2480 c-18 -4 -42 -17 -55 -28 l-23 -22 42 0 c31 0 45 5 54 20
7 11 18 20 25 20 6 0 15 5 18 10 7 11 -15 11 -61 0z"/>
<path d="M2963 2344 c-20 -21 -16 -42 3 -22 9 9 15 21 13 26 -2 6 -9 4 -16 -4z"/>
<path d="M3713 2263 c9 -2 23 -2 30 0 6 3 -1 5 -18 5 -16 0 -22 -2 -12 -5z"/>
<path d="M3633 2253 c9 -2 23 -2 30 0 6 3 -1 5 -18 5 -16 0 -22 -2 -12 -5z"/>
<path d="M3538 2233 c7 -3 16 -2 19 1 4 3 -2 6 -13 5 -11 0 -14 -3 -6 -6z"/>
<path d="M3468 2213 c7 -3 16 -2 19 1 4 3 -2 6 -13 5 -11 0 -14 -3 -6 -6z"/>
</g>
</svg>
